<!-- Cockpit Mode Toggle Icon -->
<svg width="24" height="24" viewBox="0 0 24 24" fill="none" xmlns="http://www.w3.org/2000/svg">
  <!-- High Contrast Toggle -->
  <circle cx="12" cy="12" r="9" fill="#56B4E9"/>
  <path d="M12 3A9 9 0 0 0 12 21A9 9 0 0 1 12 3Z" fill="#1E293B"/>
  
  <!-- Cockpit Sunburst -->
  <path d="M12 1V5M12 19V23M4.22 4.22L6.34 6.34M17.66 17.66L19.78 19.78M1 12H5M19 12H23M4.22 19.78L6.34 17.66M17.66 6.34L19.78 4.22" 
        stroke="#F59E0B" stroke-width="1.5" stroke-linecap="round"/>
  
  <!-- HUD Display Lines -->
  <path d="M8 8L16 8M8 12L16 12M8 16L16 16" stroke="white" stroke-width="0.5" opacity="0.7"/>
  
  <!-- Cockpit Symbol -->
  <text x="12" y="13" text-anchor="middle" font-family="Arial" font-size="3" fill="white" font-weight="bold">HC</text>
</svg>