<!-- Multi Engine Aircraft Icon -->
<svg width="24" height="24" viewBox="0 0 24 24" fill="none" xmlns="http://www.w3.org/2000/svg">
  <!-- Fuselage -->
  <path d="M12 4L12 20" stroke="#56B4E9" stroke-width="2" stroke-linecap="round"/>
  
  <!-- Wings -->
  <path d="M3 11L21 11" stroke="#56B4E9" stroke-width="2.5" stroke-linecap="round"/>
  
  <!-- Left Engine & Propeller -->
  <circle cx="7" cy="11" r="2" fill="none" stroke="#56B4E9" stroke-width="1"/>
  <circle cx="7" cy="11" r="1" fill="#56B4E9"/>
  <path d="M5.5 11L8.5 11" stroke="#56B4E9" stroke-width="0.8" stroke-linecap="round"/>
  <path d="M7 9.5L7 12.5" stroke="#56B4E9" stroke-width="0.8" stroke-linecap="round"/>
  
  <!-- Right Engine & Propeller -->
  <circle cx="17" cy="11" r="2" fill="none" stroke="#56B4E9" stroke-width="1"/>
  <circle cx="17" cy="11" r="1" fill="#56B4E9"/>
  <path d="M15.5 11L18.5 11" stroke="#56B4E9" stroke-width="0.8" stroke-linecap="round"/>
  <path d="M17 9.5L17 12.5" stroke="#56B4E9" stroke-width="0.8" stroke-linecap="round"/>
  
  <!-- Tail -->
  <path d="M9 18L15 18" stroke="#56B4E9" stroke-width="2" stroke-linecap="round"/>
  <path d="M12 16L12 20" stroke="#56B4E9" stroke-width="2" stroke-linecap="round"/>
  
  <!-- Landing Gear -->
  <circle cx="7" cy="14" r="1" fill="#4A90E2"/>
  <circle cx="12" cy="14" r="1" fill="#4A90E2"/>
  <circle cx="17" cy="14" r="1" fill="#4A90E2"/>
  
  <!-- Wing Tips -->
  <circle cx="3" cy="11" r="0.5" fill="#56B4E9"/>
  <circle cx="21" cy="11" r="0.5" fill="#56B4E9"/>
</svg>